<svg xmlns="http://www.w3.org/2000/svg" width="23.876" height="17.647" viewBox="0 0 23.876 17.647">
  <path id="Tracé_29497" data-name="Tracé 29497" d="M41.169,61.1a1.746,1.746,0,0,0-1.6,1.077,1.815,1.815,0,0,0,.592,2.137q3.7,3.522,7.4,7.05a1.825,1.825,0,0,0,3.03-.127q2.529-2.9,5.055-5.806,2.546-2.931,5.084-5.87a1.747,1.747,0,0,0-.3-2.8c-.845-.509-1.671-.291-2.5.663q-4.24,4.89-8.47,9.787c-.383.446-.622.559-1.1.086-1.877-1.848-3.8-3.651-5.7-5.473A2.143,2.143,0,0,0,41.169,61.1Z" transform="translate(-38.418 -55.458)" fill="#e2e2e2" stroke="#000" strokeWidth="2"/>
</svg>
