<svg xmlns="http://www.w3.org/2000/svg" width="23.619" height="22.261" viewBox="0 0 23.619 22.261">
  <path id="Tracé_29508" data-name="Tracé 29508" d="M1.768,9.4A1.739,1.739,0,0,0,.533,11.35,1.731,1.731,0,0,0,2.448,12.71q2.6,0,5.206,0a.812.812,0,0,1,.468.05c-.2.493-.417.975-.6,1.469a9.965,9.965,0,0,0-.8,3.846c.058,1.617.783,2.495,2.18,2.669.576.072.715-.024.816-.595a20.079,20.079,0,0,0,.165-2.359,2.06,2.06,0,0,1,.452-1.225,13.543,13.543,0,0,1,1.519-1.519,24.7,24.7,0,0,0,2.69-2.533,1.894,1.894,0,0,0,.511-1.241c-.009-3.1,0-6.2-.006-9.294a1.287,1.287,0,0,0-1.393-1.4C12.683.575,11.708.576,10.732.566,8.624.545,6.516.513,4.408.5A1.685,1.685,0,0,0,2.664,2.573a2.249,2.249,0,0,0,.527.934A1.731,1.731,0,0,0,1.965,4.764a1.818,1.818,0,0,0,.5,1.682C1.091,7.07.831,8.181,1.768,9.4ZM16.245,6.679q0,2.324,0,4.647a1.262,1.262,0,0,0,1.393,1.422q1.527.01,3.055,0A1.28,1.28,0,0,0,22.1,11.333q0-4.647,0-9.295a1.267,1.267,0,0,0-1.382-1.4c-1.018-.006-2.037,0-3.055,0a1.264,1.264,0,0,0-1.421,1.433Q16.242,4.377,16.245,6.679Z" transform="translate(0.513 0.5)" fill="none" stroke="#989898" strokeWidth="2"/>
</svg>
