<svg xmlns="http://www.w3.org/2000/svg" width="20.192" height="19.049" viewBox="0 0 20.192 19.049">
  <path id="Tracé_29507" data-name="Tracé 29507" d="M1.567,7.992A1.464,1.464,0,0,0,.527,9.63a1.456,1.456,0,0,0,1.612,1.144q2.19,0,4.381,0a.683.683,0,0,1,.394.042c-.171.415-.351.821-.506,1.236a8.385,8.385,0,0,0-.672,3.236c.048,1.361.659,2.1,1.834,2.245.485.06.6-.02.686-.5A16.9,16.9,0,0,0,8.4,15.05a1.733,1.733,0,0,1,.381-1.031,11.4,11.4,0,0,1,1.278-1.278,20.785,20.785,0,0,0,2.264-2.132,1.594,1.594,0,0,0,.43-1.044c-.008-2.607,0-5.213,0-7.82A1.083,1.083,0,0,0,11.571.57C10.751.563,9.93.564,9.11.555,7.336.538,5.562.511,3.788.5A1.418,1.418,0,0,0,2.321,2.244a1.893,1.893,0,0,0,.443.786A1.457,1.457,0,0,0,1.733,4.088,1.53,1.53,0,0,0,2.157,5.5,1.461,1.461,0,0,0,1.567,7.992ZM13.748,5.7q0,1.955,0,3.91a1.062,1.062,0,0,0,1.172,1.2q1.285.009,2.571,0a1.077,1.077,0,0,0,1.187-1.191q0-3.91,0-7.821A1.066,1.066,0,0,0,17.515.62c-.857-.005-1.714,0-2.571,0a1.064,1.064,0,0,0-1.2,1.206Q13.745,3.762,13.748,5.7Z" transform="translate(0.512 0.5)" fill="none" stroke="#000" strokeWidth="2"/>
</svg>
