<svg xmlns="http://www.w3.org/2000/svg" width="41.549" height="18.611" viewBox="0 0 41.549 18.611">
  <path id="Tracé_29488" data-name="Tracé 29488" d="M42.069,7.172c-.279.92-.477,1.863-.828,2.761A28.168,28.168,0,0,1,37.9,16.049a7.569,7.569,0,0,1-6.086,3.058,7.011,7.011,0,0,1-3.767-1.2,16.236,16.236,0,0,1-3.118-2.391,10.1,10.1,0,0,0-1.989-1.391,1.331,1.331,0,0,0-1.344,0,12.7,12.7,0,0,0-2.711,2.033,13.7,13.7,0,0,1-4.415,2.711,5.649,5.649,0,0,1-3.013.091,7.5,7.5,0,0,1-5.354-3.677A25.028,25.028,0,0,1,2.607,7.6a1.854,1.854,0,0,1,1-2.429,19.266,19.266,0,0,1,6.913-2.535,15.581,15.581,0,0,1,5.714.323c1.63.372,3.257.755,4.878,1.166a4.578,4.578,0,0,0,2.323,0c1.806-.462,3.617-.908,5.443-1.289a16.012,16.012,0,0,1,10.84,1.673q.584.3,1.158.617a2.3,2.3,0,0,1,1.194,1.35Zm-28.2,5.676a8.9,8.9,0,0,0,3.6-.757c.138-.06.295-.093.166-.321a7.254,7.254,0,0,0-3.414-3.395,6.806,6.806,0,0,0-5.464.378c-.2.085-.153.186-.079.325A8.951,8.951,0,0,0,10,10.929,5.212,5.212,0,0,0,13.871,12.849Zm16.519,0a5.174,5.174,0,0,0,1.376-.159,6.937,6.937,0,0,0,4.13-3.66c.1-.176,0-.221-.125-.279a8.358,8.358,0,0,0-1.454-.511,6.028,6.028,0,0,0-3.9.1A7.345,7.345,0,0,0,26.9,11.79c-.119.213.037.239.16.293A8.456,8.456,0,0,0,30.39,12.844Z" transform="translate(-1.52 -1.503)" fill="none" stroke="#fff" strokeWidth="2"/>
</svg>
